<?xml version="1.0" standalone="no"?>
<!DOCTYPE svg PUBLIC "-//W3C//DTD SVG 20010904//EN"
 "http://www.w3.org/TR/2001/REC-SVG-20010904/DTD/svg10.dtd">
<svg version="1.0" xmlns="http://www.w3.org/2000/svg"
 width="1024.000000pt" height="1024.000000pt" viewBox="0 0 1024.000000 1024.000000"
 preserveAspectRatio="xMidYMid meet">
<metadata>
Created by potrace 1.14, written by Peter Selinger 2001-2017
</metadata>
<g transform="translate(0.000000,1024.000000) scale(0.100000,-0.100000)"
fill="#000000" stroke="none">
<path d="M7590 10233 c-57 -9 -236 -56 -244 -64 -6 -5 -20 -9 -32 -9 -13 0
-26 -4 -29 -10 -3 -5 -15 -10 -26 -10 -10 0 -19 -5 -19 -12 0 -6 -3 -9 -6 -5
-10 10 -251 -108 -358 -176 -11 -6 -63 -39 -115 -72 -53 -33 -97 -63 -99 -67
-2 -5 -10 -8 -18 -8 -8 0 -14 -4 -14 -10 0 -5 -4 -10 -10 -10 -20 0 -409 -295
-515 -391 -33 -30 -39 -36 -141 -124 -132 -114 -619 -609 -767 -779 -10 -12
-35 -39 -55 -62 -20 -22 -57 -65 -82 -94 -25 -30 -55 -65 -68 -79 -25 -27
-251 -305 -386 -474 -47 -59 -86 -111 -86 -116 0 -5 -4 -11 -8 -13 -5 -1 -42
-48 -83 -103 -41 -55 -78 -104 -82 -110 -4 -5 -55 -75 -113 -155 -58 -80 -112
-153 -120 -163 -7 -9 -14 -19 -14 -22 0 -8 -74 -110 -82 -113 -5 -2 -8 -8 -8
-14 0 -6 -16 -30 -35 -54 -19 -23 -35 -45 -35 -47 0 -5 -118 -183 -166 -252
-42 -60 -114 -176 -114 -184 0 -5 -4 -11 -8 -13 -7 -2 -105 -155 -175 -272 -7
-11 -27 -44 -44 -72 -18 -29 -33 -58 -33 -64 0 -5 -4 -10 -10 -10 -5 0 -10 -4
-10 -9 0 -13 -73 -135 -82 -139 -5 -2 -8 -8 -8 -12 0 -9 -130 -244 -147 -265
-4 -6 -21 -38 -38 -70 -16 -33 -32 -62 -35 -65 -3 -3 -16 -27 -30 -55 -14 -27
-27 -52 -30 -55 -6 -6 -30 -52 -129 -245 -36 -71 -69 -131 -73 -133 -5 -2 -8
-8 -8 -13 0 -9 -78 -170 -101 -209 -19 -34 -159 -332 -159 -341 0 -5 -5 -9
-10 -9 -6 0 -9 -3 -8 -7 2 -10 -8 -33 -76 -177 -31 -65 -56 -121 -56 -125 0
-3 -9 -23 -20 -44 -11 -20 -17 -37 -13 -37 5 0 3 -4 -3 -8 -5 -4 -45 -90 -88
-192 -43 -102 -87 -204 -97 -227 -11 -24 -19 -46 -19 -49 0 -3 -7 -20 -15 -37
-19 -43 -57 -146 -54 -149 1 -2 -4 -14 -11 -28 -8 -14 -15 -29 -16 -35 -2 -12
-42 -122 -54 -150 -8 -18 -32 -91 -35 -105 -1 -3 -6 -21 -12 -40 -45 -142
-103 -340 -118 -404 -2 -10 -13 -55 -24 -100 -11 -44 -23 -93 -26 -108 -3 -16
-7 -38 -10 -50 -12 -56 -16 -76 -26 -123 -5 -27 -12 -66 -15 -85 -3 -19 -7
-47 -9 -62 -11 -66 -16 -96 -20 -138 -3 -25 -8 -58 -11 -75 -18 -104 -25 -552
-10 -660 10 -77 33 -193 51 -260 9 -33 18 -64 19 -70 2 -5 6 -17 9 -25 3 -8
15 -42 27 -74 22 -61 79 -187 90 -196 3 -3 10 -16 16 -30 7 -14 39 -61 72
-105 166 -220 356 -331 675 -393 46 -9 382 -8 422 1 11 3 45 9 75 13 30 4 57
9 60 9 7 2 52 13 120 30 30 7 76 20 103 28 26 8 47 12 47 9 0 -4 4 -2 8 3 4 6
32 18 62 29 89 30 324 141 430 203 25 14 59 34 75 43 17 10 45 26 62 36 18 11
33 22 33 27 0 4 5 7 10 7 12 0 243 151 248 162 2 5 10 8 18 8 8 0 14 4 14 8 0
4 15 16 33 27 17 10 46 32 62 47 17 15 33 28 37 28 5 0 17 8 27 17 11 10 26
23 34 30 8 6 51 41 96 77 74 60 104 85 179 153 13 12 51 46 84 75 33 29 149
141 258 248 174 171 202 203 229 262 58 126 59 254 1 378 -30 65 -40 79 -95
132 -142 137 -366 162 -531 59 -23 -14 -81 -62 -129 -106 -193 -176 -267 -237
-375 -305 -30 -19 -56 -38 -58 -42 -2 -5 -12 -8 -22 -8 -10 0 -20 -3 -22 -7
-8 -20 -274 -137 -368 -163 -59 -17 -132 -19 -149 -6 -8 6 -16 10 -18 9 -29
-22 -134 91 -149 160 -1 4 -3 9 -4 12 -3 5 -3 8 -13 45 -11 42 -18 83 -24 145
-9 85 -8 416 0 505 14 144 17 172 23 198 3 15 7 36 9 47 3 21 22 125 30 163 2
13 18 76 34 140 17 64 34 128 37 142 3 14 9 34 14 45 9 22 78 231 85 255 8 31
143 378 153 395 4 5 7 12 8 15 2 9 16 44 35 87 10 24 19 50 19 58 0 8 5 15 10
15 6 0 10 6 10 14 0 11 55 145 104 251 64 138 76 166 76 170 0 16 320 666 332
675 4 3 14 21 23 40 9 19 28 58 44 85 15 28 45 82 66 120 21 39 46 84 55 100
10 17 29 50 42 75 14 25 34 61 45 81 11 19 28 50 37 68 10 18 20 30 23 27 3
-3 0 -12 -7 -21 -7 -8 -10 -15 -7 -15 2 0 -4 -33 -15 -72 -39 -145 -31 -389
16 -503 8 -19 13 -35 11 -35 -8 0 64 -132 92 -170 66 -89 230 -220 277 -220 6
0 17 -5 24 -12 7 -7 12 -9 12 -5 0 3 12 2 27 -4 50 -19 249 -28 313 -13 14 3
39 8 55 10 180 31 407 143 575 284 75 62 279 272 399 409 14 15 112 125 186
207 12 12 39 44 60 70 22 26 47 55 55 63 74 80 344 439 458 611 43 63 80 117
85 118 4 2 7 8 7 14 0 5 10 24 23 41 12 17 27 39 32 49 6 10 31 53 58 98 26
44 47 84 47 90 0 5 4 10 9 10 5 0 17 17 28 38 29 58 77 146 83 152 6 6 22 34
69 120 19 36 47 88 63 115 15 28 58 111 95 185 37 74 72 138 76 141 5 3 8 9 8
13 0 3 26 63 59 132 33 70 60 129 60 131 0 2 8 23 19 46 37 85 71 164 106 257
72 184 187 550 188 598 0 6 4 12 9 12 5 0 7 3 4 8 -2 4 2 34 10 67 8 33 16 71
19 85 3 14 7 36 10 50 12 64 15 78 21 120 14 105 16 143 17 300 1 142 -5 240
-18 313 -59 305 -243 528 -525 638 -30 11 -66 22 -80 24 -14 2 -43 8 -65 13
-40 9 -237 12 -285 5z m-224 -1200 c-3 -21 -8 -49 -11 -63 -3 -14 -7 -36 -10
-50 -18 -93 -52 -212 -93 -320 -3 -8 -6 -17 -7 -20 -3 -9 -25 -65 -34 -85 -5
-11 -26 -60 -47 -110 -79 -186 -377 -758 -420 -806 -8 -8 -14 -19 -14 -23 0
-19 -284 -432 -326 -473 -8 -8 -14 -18 -14 -22 0 -4 -15 -24 -32 -44 -18 -20
-42 -48 -53 -62 -45 -57 -115 -142 -145 -175 -14 -15 -49 -55 -79 -89 -30 -33
-82 -86 -116 -115 l-61 -55 -63 60 c-35 32 -67 57 -72 53 -5 -3 -9 -1 -9 4 0
12 -59 29 -159 46 -30 5 -141 -24 -185 -49 -43 -24 -46 -24 -34 -6 7 12 16 21
20 21 5 0 8 4 8 9 0 5 17 37 38 71 20 33 42 69 47 78 114 196 482 741 592 877
5 6 37 48 72 95 90 119 125 164 131 170 3 3 24 28 45 55 22 28 42 52 45 55 3
3 23 28 45 55 21 28 42 52 45 55 3 3 22 26 42 52 19 26 38 45 42 41 3 -3 6 -1
6 5 0 7 9 22 19 34 22 25 33 38 106 124 28 32 60 69 73 82 12 13 22 25 22 28
0 2 14 18 30 34 17 16 30 34 30 40 0 5 7 10 15 10 8 0 15 4 15 9 0 35 388 401
425 401 4 0 18 9 32 20 37 29 46 25 39 -17z"/>
</g>
</svg>
